<svg width="23" height="22" viewBox="0 0 23 22" fill="none" xmlns="http://www.w3.org/2000/svg">
<path d="M11.5015 11.4241C14.7873 11.4241 17.4732 8.8549 17.4732 5.71203C17.4732 2.56915 14.7873 0 11.5015 0C8.21579 0 5.52991 2.56915 5.52991 5.71203C5.52991 8.8549 8.21584 11.4241 11.5015 11.4241Z" fill="#4F4F4F"/>
<path d="M21.7498 15.988C21.5934 15.6139 21.3848 15.2647 21.1501 14.9404C19.9505 13.2442 18.0991 12.1218 16.0129 11.8474C15.7522 11.8225 15.4653 11.8723 15.2567 12.022C14.1614 12.7953 12.8576 13.1944 11.5016 13.1944C10.1455 13.1944 8.84169 12.7953 7.74644 12.022C7.53781 11.8723 7.25096 11.7975 6.99021 11.8474C4.90404 12.1218 3.0265 13.2442 1.85304 14.9404C1.61835 15.2647 1.40971 15.6388 1.25329 15.988C1.17507 16.1377 1.20113 16.3123 1.27934 16.462C1.48798 16.8112 1.74872 17.1604 1.98342 17.4597C2.34848 17.9337 2.73965 18.3577 3.18298 18.7567C3.54805 19.1059 3.96527 19.4302 4.38254 19.7545C6.44261 21.2262 8.91995 21.9994 11.4755 21.9994C14.0311 21.9994 16.5084 21.2261 18.5685 19.7545C18.9857 19.4552 19.4029 19.1059 19.768 18.7567C20.1853 18.3577 20.6025 17.9336 20.9676 17.4597C21.2283 17.1354 21.4631 16.8112 21.6717 16.462C21.802 16.3123 21.8281 16.1377 21.7498 15.988Z" fill="#4F4F4F"/>
</svg>