<svg width="32" height="37" viewBox="0 0 32 37" fill="none" xmlns="http://www.w3.org/2000/svg">
<path fill-rule="evenodd" clip-rule="evenodd" d="M7.07477 4.19285C6.80601 4.19215 6.54693 4.22877 6.30074 4.29839C5.96325 3.40297 5.51746 2.59964 5.01044 1.9893C4.14987 0.953373 2.79264 0.544922 0.913818 0.544922V4.18822C2.06156 4.18822 2.72204 4.38699 2.87033 4.5655C3.44231 5.25403 3.94038 6.65303 3.94038 7.83152L3.95559 8.08915L5.43841 20.584C2.95729 20.739 1.03518 23.0584 0.915678 25.9578L0.913818 27.8697C1.06034 30.8644 2.97605 33.168 5.36777 33.3317L5.71132 33.3323C6.334 35.4561 8.01612 36.9779 9.99352 36.9779C11.9702 36.9779 13.6518 35.4572 14.275 33.3346H17.8183C18.4415 35.4572 20.1231 36.9779 22.0998 36.9779C24.6071 36.9779 26.6396 34.5312 26.6396 31.513C26.6396 28.4948 24.6071 26.048 22.0998 26.048C20.1231 26.048 18.4415 27.5688 17.8183 29.6913H14.275C13.6518 27.5688 11.9702 26.048 9.99352 26.048C8.01684 26.048 6.33522 27.5688 5.71199 29.6913H5.45367C4.68191 29.6356 3.98962 28.8031 3.93767 27.7606L3.94038 26.048C3.98119 25.1032 4.66874 24.2755 5.52866 24.2241L8.51609 24.225L8.53774 24.2264H23.7899L24.0133 24.1411C25.1607 23.7028 26.0792 22.6627 26.5141 21.3163L26.6735 20.9365L27.1915 19.7012C27.7273 18.4225 28.2632 17.1415 28.7854 15.8901C30.0645 12.8248 30.8689 10.8767 31.0471 10.3983C31.9619 7.94165 30.1087 6.05079 28.2145 6.01053L7.07477 4.19285ZM23.2641 20.5832H8.65104C8.55387 20.5507 8.47983 20.4516 8.46534 20.3282L6.98248 7.83304L27.9916 9.6441C27.624 10.5465 26.9557 12.1584 26.0809 14.255L26.059 14.3075C25.5596 15.5042 25.0244 16.7834 24.4893 18.0604L23.9719 19.2941L23.7758 19.7614L23.702 19.9679C23.623 20.233 23.466 20.4509 23.2641 20.5832ZM22.0998 33.3347C22.9355 33.3347 23.6131 32.5191 23.6131 31.513C23.6131 30.507 22.9355 29.6914 22.0998 29.6914C21.264 29.6914 20.5865 30.507 20.5865 31.513C20.5865 32.5191 21.264 33.3347 22.0998 33.3347ZM11.5068 31.513C11.5068 32.5191 10.8293 33.3347 9.99352 33.3347C9.15776 33.3347 8.48024 32.5191 8.48024 31.513C8.48024 30.507 9.15776 29.6914 9.99352 29.6914C10.8293 29.6914 11.5068 30.507 11.5068 31.513Z" fill="#CF3E1E"/>
</svg>
