<svg width="24" height="23" viewBox="0 0 24 23" fill="none" xmlns="http://www.w3.org/2000/svg">
<path d="M3 2.35484V2C3 1.44771 3.44772 1 4 1H8.58109C8.84908 1 9.10586 1.10757 9.29383 1.29857L11 3.03226H22C22.5523 3.03226 23 3.47997 23 4.03226V18.0825C23 18.4142 22.8355 18.7243 22.5608 18.9104L21 19.9677H20.3333M20.3333 19.9677V21C20.3333 21.5523 19.8856 22 19.3333 22H2C1.44772 22 1 21.5523 1 21V4.03226C1 3.47997 1.44772 3.03226 2 3.03226H6.58109C6.84908 3.03226 7.10586 3.13982 7.29383 3.33083L9.66667 5.74194H19.3333C19.8856 5.74194 20.3333 6.18965 20.3333 6.74194V19.9677Z" stroke="#4F4F4F" stroke-width="2"/>
</svg>