<svg width="15" height="28" viewBox="0 0 15 28" fill="none" xmlns="http://www.w3.org/2000/svg">
<path d="M15 1L14 6L11.7792 5.25974C11.3017 5.10055 10.7752 5.22485 10.4192 5.5808C10.1508 5.84921 10 6.21325 10 6.59284V9H14V13C14 13.5523 13.5523 14 13 14H10V27C10 27.5523 9.55229 28 9 28H4C3.44772 28 3 27.5523 3 27V14H1C0.447715 14 0 13.5523 0 13V9H3.5V4.32083C3.5 3.45958 3.75493 2.6176 4.23267 1.901C4.40914 1.63629 4.63629 1.40914 4.901 1.23267L5.13191 1.07873C5.70636 0.695761 6.34237 0.414406 7.01217 0.246959L7.13826 0.215435C7.71059 0.0723517 8.29831 0 8.88826 0H9.48485C10.4912 0 11.4937 0.123414 12.4699 0.367478L15 1Z" fill="#969696"/>
</svg>