<svg width="240" height="43" viewBox="0 0 240 43" fill="none" xmlns="http://www.w3.org/2000/svg" xmlns:xlink="http://www.w3.org/1999/xlink">
  <rect width="240" height="42.9985" fill="url(#pattern0)" fill-opacity="0.85"/>
  <defs>
    <pattern id="pattern0" patternContentUnits="objectBoundingBox" width="1" height="1">
      <use xlink:href="#image0" transform="scale(0.000749625 0.0041841)"/>
    </pattern>
  </defs>
</svg>

<svg width="150" height="28" viewBox="0 0 150 28" fill="none" xmlns="http://www.w3.org/2000/svg">
  <path d="M0 0V26.3199H5.6391V15.522H18.2707V26.3199H23.9098V0H18.2707V10.7979H5.6391V0H0Z" fill="#050505"/>
  <path d="M46.9173 0H28.1955V26.3199H46.9173V21.5958H33.8346V15.522H46.9173V10.7979H33.8346V4.72408H46.9173V0Z" fill="#050505"/>
  <path fill-rule="evenodd" clip-rule="evenodd" d="M59.3233 0L49.1729 26.3199H54.1827C54.962 26.3199 55.6533 25.8209 55.8968 25.0826L56.8985 22.0457H68.7406L69.9329 25.1618C70.1997 25.8592 70.8704 26.3199 71.6188 26.3199H76.9173L66.5414 0H59.3233ZM58.6466 16.8155L62.2556 5.62391L66.6541 16.8155H58.6466Z" fill="#050505"/>
  <path d="M131.063 0H126.316V26.3199H131.955V9.67313L143.82 25.5938C144.16 26.0506 144.697 26.3199 145.268 26.3199H150V0H144.361V16.1969L132.497 0.70719C132.155 0.261488 131.625 0 131.063 0Z" fill="#050505"/>
  <path d="M123.214 25.5888C87.9361 34.1371 74.4925 12.1664 72.1805 0.112478H78.7218C82.9173 16.5793 96.6729 21.2584 103.026 21.5396V0.0562391H121.523V4.72408H108.722V10.8541H121.523V15.5782H108.722V21.9333C114.135 21.9333 119.511 20.9584 121.523 20.471L123.327 25.5326L123.214 25.5888Z" fill="#050505"/>
  <path d="M93.8373 1.14485L88.6466 14.3972L93.5526 17.5466L100.602 0H95.5181C94.7749 0 94.1077 0.454441 93.8373 1.14485Z" fill="#050505"/>
  <path d="M83.4023 26.3199L79.906 17.8278C84.0113 22.147 88.797 24.539 90.6767 25.1951L90.2256 26.3199H83.4023Z" fill="#050505"/>
</svg>
