<svg width="348" height="88" viewBox="0 0 348 88" fill="none" xmlns="http://www.w3.org/2000/svg" xmlns:xlink="http://www.w3.org/1999/xlink">
<rect x="52" width="240" height="42.9985" fill="url(#pattern0)" fill-opacity="0.85"/>
<path d="M62.4103 71.214V69H52.7983V56.994H54.2923V67.668H61.3123V56.994H62.8063V67.668H63.9043V71.214H62.4103ZM69.0461 69H67.6061V56.994H69.1001V66.372L76.0121 56.994H77.5421V69H76.0481V59.424L69.0461 69ZM88.7383 69H87.2443V67.83C85.5163 67.71 84.1543 67.218 83.1583 66.354C82.1623 65.49 81.6643 64.374 81.6643 63.006C81.6643 61.65 82.1623 60.54 83.1583 59.676C84.1543 58.812 85.5163 58.32 87.2443 58.2V56.994H88.7383V58.2C90.4543 58.32 91.8163 58.818 92.8243 59.694C93.8323 60.558 94.3363 61.662 94.3363 63.006C94.3363 64.374 93.8323 65.49 92.8243 66.354C91.8283 67.218 90.4663 67.71 88.7383 67.83V69ZM91.7083 65.382C92.4283 64.758 92.7883 63.966 92.7883 63.006C92.7883 62.046 92.4283 61.254 91.7083 60.63C90.9883 60.006 89.9983 59.64 88.7383 59.532V66.48C89.9983 66.372 90.9883 66.006 91.7083 65.382ZM84.2743 60.63C83.5663 61.254 83.2123 62.046 83.2123 63.006C83.2123 63.966 83.5663 64.758 84.2743 65.382C84.9943 66.006 85.9843 66.372 87.2443 66.48V59.532C85.9843 59.64 84.9943 60.006 84.2743 60.63ZM99.9462 69H98.4522V56.994H103.276C104.44 56.994 105.358 57.342 106.03 58.038C106.702 58.734 107.038 59.592 107.038 60.612C107.038 61.632 106.696 62.49 106.012 63.186C105.34 63.882 104.428 64.23 103.276 64.23H99.9462V69ZM103.096 62.898C103.804 62.898 104.38 62.688 104.824 62.268C105.268 61.836 105.49 61.284 105.49 60.612C105.49 59.94 105.268 59.394 104.824 58.974C104.38 58.542 103.804 58.326 103.096 58.326H99.9462V62.898H103.096ZM116.289 69.216C114.525 69.216 113.091 68.628 111.987 67.452C110.883 66.276 110.331 64.794 110.331 63.006C110.331 61.218 110.883 59.736 111.987 58.56C113.091 57.384 114.525 56.796 116.289 56.796C118.041 56.796 119.469 57.384 120.573 58.56C121.689 59.736 122.247 61.218 122.247 63.006C122.247 64.794 121.689 66.276 120.573 67.452C119.469 68.628 118.041 69.216 116.289 69.216ZM116.289 67.884C117.609 67.884 118.671 67.428 119.475 66.516C120.291 65.592 120.699 64.422 120.699 63.006C120.699 61.578 120.291 60.408 119.475 59.496C118.671 58.584 117.609 58.128 116.289 58.128C114.957 58.128 113.889 58.584 113.085 59.496C112.281 60.408 111.879 61.578 111.879 63.006C111.879 64.422 112.281 65.592 113.085 66.516C113.889 67.428 114.957 67.884 116.289 67.884ZM131.852 69H126.38V56.994H131.726C132.758 56.994 133.574 57.276 134.174 57.84C134.786 58.404 135.092 59.142 135.092 60.054C135.092 60.774 134.888 61.386 134.48 61.89C134.072 62.382 133.574 62.688 132.986 62.808C133.622 62.904 134.168 63.24 134.624 63.816C135.092 64.392 135.326 65.04 135.326 65.76C135.326 66.732 135.014 67.518 134.39 68.118C133.778 68.706 132.932 69 131.852 69ZM131.474 62.196C132.134 62.196 132.644 62.016 133.004 61.656C133.364 61.296 133.544 60.834 133.544 60.27C133.544 59.706 133.358 59.244 132.986 58.884C132.626 58.512 132.122 58.326 131.474 58.326H127.874V62.196H131.474ZM131.546 67.668C132.242 67.668 132.788 67.482 133.184 67.11C133.58 66.738 133.778 66.234 133.778 65.598C133.778 65.01 133.58 64.518 133.184 64.122C132.8 63.726 132.254 63.528 131.546 63.528H127.874V67.668H131.546ZM149.779 69H148.069L147.007 66.336H141.031L139.969 69H138.259L143.083 56.994H144.937L149.779 69ZM146.557 65.004L144.019 58.542L141.463 65.004H146.557ZM154.336 69H152.59L155.83 64.104C154.954 64.032 154.21 63.69 153.598 63.078C152.998 62.466 152.698 61.644 152.698 60.612C152.698 59.52 153.046 58.644 153.742 57.984C154.45 57.324 155.362 56.994 156.478 56.994H161.302V69H159.808V64.23H157.396L154.336 69ZM156.64 62.916H159.808V58.326H156.64C155.932 58.326 155.356 58.542 154.912 58.974C154.468 59.394 154.246 59.94 154.246 60.612C154.246 61.284 154.468 61.836 154.912 62.268C155.368 62.7 155.944 62.916 156.64 62.916ZM182.348 69H180.854V58.326H173.834V69H172.34V56.994H182.348V69ZM186.127 69.216V67.884C186.643 67.884 187.063 67.764 187.387 67.524C187.711 67.284 187.999 66.81 188.251 66.102C188.503 65.382 188.713 64.356 188.881 63.024L189.619 56.994H196.963V69H195.469V58.326H190.951L190.357 63.132C190.201 64.416 189.991 65.472 189.727 66.3C189.475 67.128 189.157 67.752 188.773 68.172C188.401 68.58 188.011 68.856 187.603 69C187.207 69.144 186.715 69.216 186.127 69.216ZM211.847 69H210.137L209.075 66.336H203.099L202.037 69H200.327L205.151 56.994H207.005L211.847 69ZM208.625 65.004L206.087 58.542L203.531 65.004H208.625ZM218.468 69H216.974V58.326H213.176V56.994H222.284V58.326H218.468V69ZM232.165 69H230.671V67.83C228.943 67.71 227.581 67.218 226.585 66.354C225.589 65.49 225.091 64.374 225.091 63.006C225.091 61.65 225.589 60.54 226.585 59.676C227.581 58.812 228.943 58.32 230.671 58.2V56.994H232.165V58.2C233.881 58.32 235.243 58.818 236.251 59.694C237.259 60.558 237.763 61.662 237.763 63.006C237.763 64.374 237.259 65.49 236.251 66.354C235.255 67.218 233.893 67.71 232.165 67.83V69ZM235.135 65.382C235.855 64.758 236.215 63.966 236.215 63.006C236.215 62.046 235.855 61.254 235.135 60.63C234.415 60.006 233.425 59.64 232.165 59.532V66.48C233.425 66.372 234.415 66.006 235.135 65.382ZM227.701 60.63C226.993 61.254 226.639 62.046 226.639 63.006C226.639 63.966 226.993 64.758 227.701 65.382C228.421 66.006 229.411 66.372 230.671 66.48V59.532C229.411 59.64 228.421 60.006 227.701 60.63ZM247.351 69.216C245.587 69.216 244.153 68.628 243.049 67.452C241.945 66.276 241.393 64.794 241.393 63.006C241.393 61.218 241.945 59.736 243.049 58.56C244.153 57.384 245.587 56.796 247.351 56.796C249.103 56.796 250.531 57.384 251.635 58.56C252.751 59.736 253.309 61.218 253.309 63.006C253.309 64.794 252.751 66.276 251.635 67.452C250.531 68.628 249.103 69.216 247.351 69.216ZM247.351 67.884C248.671 67.884 249.733 67.428 250.537 66.516C251.353 65.592 251.761 64.422 251.761 63.006C251.761 61.578 251.353 60.408 250.537 59.496C249.733 58.584 248.671 58.128 247.351 58.128C246.019 58.128 244.951 58.584 244.147 59.496C243.343 60.408 242.941 61.578 242.941 63.006C242.941 64.422 243.343 65.592 244.147 66.516C244.951 67.428 246.019 67.884 247.351 67.884ZM258.937 69H257.443V56.994H262.267C263.431 56.994 264.349 57.342 265.021 58.038C265.693 58.734 266.029 59.592 266.029 60.612C266.029 61.632 265.687 62.49 265.003 63.186C264.331 63.882 263.419 64.23 262.267 64.23H258.937V69ZM262.087 62.898C262.795 62.898 263.371 62.688 263.815 62.268C264.259 61.836 264.481 61.284 264.481 60.612C264.481 59.94 264.259 59.394 263.815 58.974C263.371 58.542 262.795 58.326 262.087 58.326H258.937V62.898H262.087ZM281.561 69H280.067V59.118L275.981 69H275.369L271.301 59.118V69H269.807V56.994H271.949L275.675 66.03L279.419 56.994H281.561V69ZM296.44 69H294.73L293.668 66.336H287.692L286.63 69H284.92L289.744 56.994H291.598L296.44 69ZM293.218 65.004L290.68 58.542L288.124 65.004H293.218Z" fill="#050505"/>
<defs>
<pattern id="pattern0" patternContentUnits="objectBoundingBox" width="1" height="1">
<use xlink:href="#image0" transform="scale(0.000749625 0.0041841)"/>
</pattern>
</defs>
</svg>
