<svg width="20" height="23" viewBox="0 0 20 23" fill="none" xmlns="http://www.w3.org/2000/svg">
<path d="M12.5754 23H3.7123C1.66528 23 0 21.3879 0 19.4062V7.23242C0 5.25077 1.66528 3.63867 3.7123 3.63867H12.5754C14.6224 3.63867 16.2877 5.25077 16.2877 7.23242V19.4062C16.2877 21.3879 14.6224 23 12.5754 23ZM3.7123 5.43555C2.68888 5.43555 1.85615 6.24168 1.85615 7.23242V19.4062C1.85615 20.397 2.68888 21.2031 3.7123 21.2031H12.5754C13.5988 21.2031 14.4316 20.397 14.4316 19.4062V7.23242C14.4316 6.24168 13.5988 5.43555 12.5754 5.43555H3.7123ZM20 17.1602V3.59375C20 1.6121 18.3347 0 16.2877 0H5.98608C5.47346 0 5.058 0.402191 5.058 0.898438C5.058 1.39468 5.47346 1.79688 5.98608 1.79688H16.2877C17.3111 1.79688 18.1439 2.60301 18.1439 3.59375V17.1602C18.1439 17.6564 18.5593 18.0586 19.0719 18.0586C19.5845 18.0586 20 17.6564 20 17.1602Z" fill="#4F4F4F"/>
</svg>