<svg width="27" height="27" viewBox="0 0 27 27" fill="none" xmlns="http://www.w3.org/2000/svg">
<g opacity="0.9">
<path d="M13.5 0C7.80781 0 3.17645 4.63136 3.17645 10.3236V19.8528C3.17645 21.1667 4.24515 22.2354 5.55877 22.2354C6.8726 22.2354 7.94129 21.1667 7.94129 19.8528V11.9118C7.94129 10.5982 6.8726 9.52947 5.55877 9.52947C5.29139 9.52947 5.03843 9.58365 4.79803 9.66522C5.13689 5.15582 8.90617 1.58821 13.5 1.58821C18.0914 1.58821 21.8597 5.15252 22.2016 9.65884C21.9627 9.57706 21.7083 9.52947 21.4413 9.52947C20.1275 9.52947 19.0588 10.5982 19.0588 11.9118V19.8528C19.0588 21.1667 20.1275 22.2354 21.4413 22.2354C21.721 22.2354 21.9857 22.1781 22.2354 22.0891V23.0295C22.2354 23.4676 21.8786 23.8236 21.4413 23.8236H15.7361C15.4071 22.9011 14.5339 22.2354 13.5 22.2354C12.1864 22.2354 11.1177 23.3041 11.1177 24.6177C11.1177 25.9313 12.1864 27 13.5 27C14.5339 27 15.4071 26.334 15.7361 25.4118H21.4413C22.7549 25.4118 23.8236 24.3431 23.8236 23.0295C23.8236 18.2529 23.8236 15.1053 23.8236 10.3236C23.8236 4.63136 19.1923 0 13.5 0Z" fill="#4F4F4F"/>
<path d="M25.4116 11.2637V20.5004C26.3339 20.1717 26.9998 19.2985 26.9998 18.2644V13.4997C26.9998 12.4659 26.3339 11.5926 25.4116 11.2637Z" fill="#4F4F4F"/>
<path d="M0 13.4997V18.2644C0 19.2985 0.665977 20.1717 1.58821 20.5004V11.2637C0.665977 11.5926 0 12.4659 0 13.4997Z" fill="#4F4F4F"/>
</g>
</svg>