<svg width="34" height="28" viewBox="0 0 34 28" fill="none" xmlns="http://www.w3.org/2000/svg">
<path d="M13.8552 7.48369L16.4848 7.77778L17.0379 5.27262C17.3459 3.87757 18.1416 2.6382 19.2818 1.77744L19.7292 1.4397C20.9539 0.51521 22.4862 0.0950416 24.0111 0.265584L24.1726 0.283643C25.5318 0.43565 26.7982 1.04745 27.7621 2.01767L27.8182 2.07407L30.5 1L32.9697 0L31.4242 4.14815L32.4545 4.66667L34 5.18518L31.4242 6.74074L30.3939 7.77778L29.6459 11.7934C29.1206 14.6135 27.9886 17.2857 26.3285 19.6251L25.963 20.1401C24.4717 22.2416 22.5235 23.9776 20.2647 25.2177C18.7821 26.0317 17.1949 26.6385 15.5474 27.0212L14.26 27.3202C12.323 27.7701 10.3236 27.8871 8.34733 27.6661C7.24955 27.5433 6.16583 27.317 5.11065 26.9902L0.732813 25.6344C0.330419 25.5097 0.108744 25.079 0.241175 24.6792C0.385548 24.2432 0.883402 24.0372 1.29361 24.2436L1.54545 24.3704C1.54545 24.1325 1.79612 23.978 2.00862 24.0849L2.57576 24.3704L8.75758 21.7778L7.14597 20.8045C6.50832 20.4194 5.94449 19.9236 5.481 19.3405L5.41173 19.2533C4.5761 18.202 4.12121 16.8986 4.12121 15.5556L1.72994 12.1859C1.60992 12.0168 1.54545 11.8145 1.54545 11.6072V10.3333C1.54545 9.78105 1.99317 9.33333 2.54545 9.33333H2.57576L1.76193 5.64716C1.62184 5.01266 1.70309 4.34934 1.99217 3.76741L2.81666 2.10764C2.98466 1.76943 3.32972 1.55556 3.70736 1.55556C3.97225 1.55556 4.2262 1.66123 4.4129 1.84915L6.22326 3.67135C6.87929 4.33166 7.62429 4.89715 8.4367 5.35143L10.0861 6.27373C11.2493 6.92419 12.5308 7.33556 13.8552 7.48369Z" fill="#969696"/>
</svg>